<svg version="1.1" viewBox="0.0 0.0 64.0 55.55905511811024" fill="none" stroke="none" stroke-linecap="square" stroke-miterlimit="10" xmlns:xlink="http://www.w3.org/1999/xlink" xmlns="http://www.w3.org/2000/svg"><clipPath id="p.0"><path d="m0 0l64.0 0l0 55.559055l-64.0 0l0 -55.559055z" clip-rule="nonzero"/></clipPath><g clip-path="url(#p.0)"><path fill="#000000" fill-opacity="0.0" d="m0 0l64.0 0l0 55.559055l-64.0 0z" fill-rule="evenodd"/><path fill="#000000" fill-opacity="0.0" d="m31.585752 28.674725l0 0l0 0l0 0z" fill-rule="evenodd"/><path fill="#000000" fill-opacity="0.0" d="m31.585752 28.674725l0 0l0 0l0 0z" fill-rule="evenodd"/><path fill="#000000" fill-opacity="0.0" d="m31.585752 28.674725l0 0l0 0l0 0z" fill-rule="evenodd"/><path fill="#000000" fill-opacity="0.0" d="m31.585752 28.674725l0 0l0 0l0 0z" fill-rule="evenodd"/><path fill="#000000" fill-opacity="0.0" d="m31.585752 28.674725l0 0l0 0l0 0z" fill-rule="evenodd"/><path fill="#ffffff" d="m0.7091129 27.244278l31.291338 -27.244095l31.29134 27.244095z" fill-rule="evenodd"/><path fill="#ffffff" d="m8.815638 22.363384l12.881889 0l0 33.19685l-12.881889 0z" fill-rule="evenodd"/><path fill="#ffffff" d="m40.942703 22.362389l13.448822 0l0 33.19685l-13.448822 0z" fill-rule="evenodd"/><path fill="#ffffff" d="m15.163181 24.609108l29.795277 0l0 6.519684l-29.795277 0z" fill-rule="evenodd"/><path fill="#ffffff" d="m15.163181 44.43357l29.795277 0l0 11.086613l-29.795277 0z" fill-rule="evenodd"/></g></svg>