<?xml version="1.0" encoding="UTF-8" standalone="no"?>
<!DOCTYPE svg PUBLIC "-//W3C//DTD SVG 1.1//EN" "http://www.w3.org/Graphics/SVG/1.1/DTD/svg11.dtd">
<svg xmlns="http://www.w3.org/2000/svg" version="1.1" viewBox="0.00 0.00 344.00 500.00">
<path fill="#353535" d="
  M 170.63 133.96
  C 168.38 135.88 163.39 136.96 164.37 141.04
  Q 169.67 162.99 176.84 184.40
  C 183.25 203.54 194.10 223.07 211.50 234.39
  C 220.87 240.48 235.10 245.46 246.56 250.42
  C 278.51 264.25 296.04 289.89 306.73 322.00
  C 317.01 352.87 304.80 390.49 285.87 415.83
  C 264.16 444.91 230.36 466.60 193.79 469.26
  C 177.11 470.48 159.62 470.23 143.47 465.35
  C 103.90 453.39 70.06 423.13 60.21 382.07
  C 58.03 372.94 58.33 363.00 58.58 353.40
  C 58.86 342.86 61.15 331.20 65.11 321.24
  C 74.97 296.45 93.22 279.29 110.45 260.82
  C 124.55 245.70 133.91 229.56 134.84 208.57
  Q 135.62 191.17 134.65 158.37
  C 134.50 153.20 133.50 148.15 132.66 143.06
  C 132.45 141.77 131.34 140.92 130.06 140.37
  C 116.29 134.38 101.84 120.48 100.87 104.47
  C 100.22 93.84 104.37 84.23 110.52 75.27
  C 119.95 61.52 133.42 56.22 149.47 60.77
  C 166.45 65.58 182.60 78.66 185.00 97.24
  C 186.85 111.50 181.26 124.94 170.63 133.96
  Z
  M 140.01 115.74
  C 146.26 116.19 151.40 116.18 156.51 112.27
  C 163.12 107.22 164.52 98.08 160.01 90.96
  C 156.06 84.71 146.21 79.33 139.04 81.58
  Q 129.92 84.45 126.00 92.67
  C 121.78 101.53 130.46 115.06 140.01 115.74
  Z
  M 160.94 237.25
  C 159.52 252.33 146.28 268.74 136.18 279.43
  C 128.35 287.73 117.37 297.67 110.87 306.05
  C 99.43 320.79 91.41 340.09 91.73 358.92
  C 92.12 381.57 102.23 399.18 119.19 413.45
  C 140.23 431.15 165.65 438.85 193.48 434.57
  C 224.98 429.73 253.30 410.39 268.33 381.92
  C 275.19 368.93 278.37 354.00 276.86 339.43
  C 276.47 335.67 275.29 331.75 274.41 327.86
  C 269.28 305.20 254.06 287.70 233.03 277.98
  C 210.80 267.71 177.90 258.42 166.89 233.97
  A 2.14 2.13 65.7 0 0 164.07 232.90
  Q 161.23 234.18 160.94 237.25
  Z"
/>
<path fill="#353535" d="
  M 243.40 328.82
  C 245.98 328.19 247.03 326.52 248.74 324.56
  A 1.02 1.02 0.0 0 1 250.52 325.13
  C 251.07 330.80 251.61 339.10 248.61 344.10
  C 245.35 349.51 233.06 355.37 227.25 353.56
  Q 214.15 349.47 209.54 336.97
  C 206.69 329.22 212.93 319.27 218.43 314.25
  C 222.71 310.35 230.72 311.10 235.86 312.46
  Q 236.47 312.63 236.04 313.08
  C 230.01 319.49 234.03 331.11 243.40 328.82
  Z"
/>
<path fill="#353535" d="
  M 140.74 330.92
  C 134.35 341.51 144.80 351.12 153.65 342.46
  A 1.29 1.28 -40.0 0 1 155.59 342.63
  C 157.10 344.73 156.68 346.39 156.79 348.66
  C 157.09 354.74 155.18 361.62 150.11 365.43
  C 137.27 375.07 125.05 370.03 116.90 357.84
  C 111.97 350.47 115.29 341.66 120.01 335.44
  C 125.16 328.66 132.11 326.85 140.14 329.34
  A 1.07 1.07 0.0 0 1 140.74 330.92
  Z"
/>
<path fill="#353535" d="
  M 190.42 380.87
  C 200.31 379.84 203.89 371.89 211.39 367.39
  Q 211.81 367.14 212.24 367.36
  Q 213.92 368.19 214.51 369.95
  Q 214.69 370.47 214.48 370.97
  C 210.85 379.82 207.55 385.70 200.32 391.05
  C 187.87 400.26 171.81 390.14 166.71 377.88
  A 1.87 1.85 -36.7 0 1 167.00 375.98
  C 168.51 374.16 170.73 375.01 172.42 376.19
  Q 180.59 381.88 190.42 380.87
  Z"
/>
</svg>
